# xmcd
#
# Track frame offsets: 
#        150
#        14824
#        32448
#        51876
#        66499
#        83348
#        99665
#        116546
#        132309
#        154216
#        172970
#        191263
#        216773
#
# Disc length: 3116 seconds
#
# Revision: 1
# Processed by: cddbd v1.5.2PL0 Copyright (c) Steve Scherf et al.
# Submitted via: ExactAudioCopyFreeDBPlugin 1.0
#
DISCID=ab0c2a0d
DTITLE=Two Timers - Lucky Dip
DYEAR=2001
DGENRE=Blues
TTITLE0=Good For Nothin' Luv
TTITLE1=Larry's Last Goodbye
TTITLE2=Big Time Broken Heart
TTITLE3=Future Blues
TTITLE4=Every Little Bit Hurts
TTITLE5=Livin' In The 21st Century
TTITLE6=Teeni Neeni Nu
TTITLE7=Gerdundula
TTITLE8=Mama Don't Allow
TTITLE9=Do It
TTITLE10=I Keep Forgetting
TTITLE11=Lock and Key
TTITLE12=Most Likely You Go Your Way And I'll Go Mine
EXTD=
EXTT0=
EXTT1=
EXTT2=
EXTT3=
EXTT4=
EXTT5=
EXTT6=
EXTT7=
EXTT8=
EXTT9=
EXTT10=
EXTT11=
EXTT12=
PLAYORDER=
